# File created by Blade
# Date/Time:  Wed Apr 08 17:12:12 2015
# Frame Rate: 120.000 fps
#------------------------------------------------------
:FULLY-SPECIFIED
:DEGREES
1042
root 4.269323 38.811052 4.419644 106.763875 -42.226724 -123.263249
Spine 65.281951 -11.563916 6.564870
Head -17.798757 15.300651 18.437396
LeftShoulder -5.603513 13.874091 26.912063
LeftArm 14.487606 25.574537 -75.893742
LeftForeArm 28.975773 -0.000000 38.740970
LeftHand -9.967858 -0.000000 -15.164923
LeftHandThumb1 -26.253704 0.000000 33.147579
RightShoulder -31.911390 -49.706079 17.597105
RightArm 44.224848 -7.197950 77.787202
RightForeArm 32.740903 -0.000000 19.721757
RightHand 0.203999 -0.000000 12.778739
RightHandThumb1 -24.326973 -0.000000 -32.862282
LeftUpLeg 29.671655 24.082777 51.028341
LeftLeg 6.869722 -0.000000 -0.000000
LeftFoot -10.593121 2.855433 -15.415717
LeftToeBase 2.844514 -0.000000 -0.000000
RightUpLeg 37.635553 13.162833 -33.600482
RightLeg 136.058023 -0.000000 -0.000000
RightFoot 19.850395 13.521978 9.915968
RightToeBase -6.251313 -0.000000 0.000000
1043
root 4.306901 38.796011 4.417290 107.426650 -42.174240 -123.596326
Spine 64.979423 -11.184772 6.571263
Head -17.862368 15.368350 18.363192
LeftShoulder -5.640336 13.970454 26.827068
LeftArm 14.497027 25.659460 -75.817907
LeftForeArm 28.833034 -0.000000 38.746636
LeftHand -10.054527 0.000000 -14.871907
LeftHandThumb1 -26.253704 0.000000 33.147579
RightShoulder -31.981171 -49.760809 17.663392
RightArm 44.166127 -7.490492 77.579388
RightForeArm 32.833504 -0.000000 19.644215
RightHand 0.124141 0.000000 12.674045
RightHandThumb1 -24.326973 -0.000000 -32.862282
LeftUpLeg 29.492884 24.454836 50.875733
LeftLeg 6.904204 -0.000000 -0.000000
LeftFoot -10.696126 2.981833 -15.431110
LeftToeBase 2.822504 -0.000000 -0.000000
RightUpLeg 37.623476 13.220740 -33.447213
RightLeg 136.250288 -0.000000 -0.000000
RightFoot 20.069458 13.283417 10.150205
RightToeBase -5.754785 -0.000000 0.000000
1044
root 4.337126 38.785313 4.415304 107.938763 -42.133473 -123.856970
Spine 64.793517 -10.892231 6.533246
Head -17.930052 15.426237 18.278226
LeftShoulder -5.664624 13.978824 26.760557
LeftArm 14.383527 25.690593 -75.834932
LeftForeArm 28.794692 -0.000000 38.737295
LeftHand -10.097039 -0.000000 -14.752921
LeftHandThumb1 -26.253704 0.000000 33.147579
RightShoulder -32.073289 -49.804578 17.730682
RightArm 44.155968 -7.774267 77.403980
RightForeArm 32.941773 0.000000 19.537188
RightHand 0.075592 0.000000 12.628153
RightHandThumb1 -24.326973 -0.000000 -32.862282
LeftUpLeg 29.354787 24.730934 50.753862
LeftLeg 6.927917 -0.000000 -0.000000
LeftFoot -10.771829 3.077303 -15.457452
LeftToeBase 2.876136 -0.000000 -0.000000
RightUpLeg 37.773432 13.317462 -33.256644
RightLeg 136.370672 -0.000000 -0.000000
RightFoot 20.236490 13.144049 10.407084
RightToeBase -5.430472 -0.000000 0.000000
1045
root 4.385978 38.770148 4.419313 108.747678 -42.057567 -124.230978
Spine 64.403180 -10.496347 6.517846
Head -18.015896 15.527926 18.200171
LeftShoulder -5.681472 14.049195 26.685931
LeftArm 14.321363 25.587116 -75.895435
LeftForeArm 28.866385 -0.000000 38.661082
LeftHand -10.002011 0.000000 -14.942895
LeftHandThumb1 -26.253704 0.000000 33.147579
RightShoulder -32.145196 -49.862438 17.818514
RightArm 44.146558 -7.932015 77.339582
RightForeArm 33.008570 0.000000 19.478432
RightHand -0.065870 -0.000000 12.579408
RightHandThumb1 -24.326973 -0.000000 -32.862282
LeftUpLeg 29.089720 25.302063 50.632752
LeftLeg 7.034927 -0.000000 -0.000000
LeftFoot -10.879814 3.105429 -15.454827
LeftToeBase 2.934785 -0.000000 -0.000000
RightUpLeg 37.547964 13.415510 -33.090213
RightLeg 136.507893 -0.000000 -0.000000
RightFoot 20.864536 13.017366 10.768938
RightToeBase -6.015501 -0.000000 0.000000
1046
root 4.427543 38.758592 4.423394 109.409650 -42.006837 -124.521896
Spine 64.111005 -10.189620 6.462631
Head -18.099843 15.636880 18.115862
LeftShoulder -5.695638 14.076283 26.634391
LeftArm 14.215804 25.522910 -75.977452
LeftForeArm 29.075977 -0.000000 38.573058
LeftHand -9.925085 0.000000 -14.974222
LeftHandThumb1 -26.253704 0.000000 33.147579
RightShoulder -32.189929 -49.900507 17.885642
RightArm 44.104438 -8.056584 77.317372
RightForeArm 33.011988 -0.000000 19.452564
RightHand -0.155906 -0.000000 12.430484
RightHandThumb1 -24.326973 -0.000000 -32.862282
LeftUpLeg 28.841719 25.813061 50.547028
LeftLeg 7.162509 -0.000000 -0.000000
LeftFoot -10.952884 3.050999 -15.458986
LeftToeBase 2.993750 -0.000000 -0.000000
RightUpLeg 37.472299 13.516985 -32.901154
RightLeg 136.619255 -0.000000 -0.000000
RightFoot 21.240666 12.992474 10.906030
RightToeBase -6.497948 -0.000000 0.000000
